{
  "accessors": [
    {
      "bufferView": 2,
      "componentType": 5126,
      "count": 1127,
      "max": [
        44.11372756958008,
        44.26170349121094,
        5.734787464141846
      ],
      "min": [
        -44.11372756958008,
        -44.2617073059082,
        -5.734789848327637
      ],
      "type": "VEC3"
    },
    {
      "bufferView": 2,
      "byteOffset": 13524,
      "componentType": 5126,
      "count": 1127,
      "max": [
        0.999998927116394,
        0.9968957901000977,
        0.9996703863143921
      ],
      "min": [
        -0.999998927116394,
        -0.9880508184432983,
        -0.9997154474258423
      ],
      "type": "VEC3"
    },
    {
      "bufferView": 3,
      "componentType": 5126,
      "count": 1127,
      "max": [
        0.9999977946281433,
        0.9999927878379822,
        1.0,
        1.0
      ],
      "min": [
        -1.0,
        -1.0,
        -1.0,
        -1.0
      ],
      "type": "VEC4"
    },
    {
      "bufferView": 1,
      "componentType": 5126,
      "count": 1127,
      "max": [
        0.9915274381637573,
        0.9186825156211853
      ],
      "min": [
        0.002669811248779297,
        0.004236280918121338
      ],
      "type": "VEC2"
    },
    {
      "bufferView": 1,
      "byteOffset": 9016,
      "componentType": 5126,
      "count": 1127,
      "max": [
        0.9921875,
        0.9954566955566406
      ],
      "min": [
        0.004543304443359375,
        0.05419921875
      ],
      "type": "VEC2"
    },
    {
      "bufferView": 0,
      "componentType": 5125,
      "count": 4116,
      "type": "SCALAR"
    }
  ],
  "asset": {
    "extras": {
      "author": "MaX3Dd (https://sketchfab.com/MaX3Dd)",
      "license": "CC-BY-4.0 (http://creativecommons.org/licenses/by/4.0/)",
      "source": "https://sketchfab.com/3d-models/wooden-pallet-low-poly-2f1abd705d4f4118b4c8d0b275441505",
      "title": "Wooden Pallet Low-poly"
    },
    "generator": "Sketchfab-16.44.0",
    "version": "2.0"
  },
  "bufferViews": [
    {
      "buffer": 0,
      "byteLength": 16464,
      "name": "floatBufferViews",
      "target": 34963
    },
    {
      "buffer": 0,
      "byteLength": 18032,
      "byteOffset": 16464,
      "byteStride": 8,
      "name": "floatBufferViews",
      "target": 34962
    },
    {
      "buffer": 0,
      "byteLength": 27048,
      "byteOffset": 34496,
      "byteStride": 12,
      "name": "floatBufferViews",
      "target": 34962
    },
    {
      "buffer": 0,
      "byteLength": 18032,
      "byteOffset": 61544,
      "byteStride": 16,
      "name": "floatBufferViews",
      "target": 34962
    }
  ],
  "buffers": [
    {
      "byteLength": 79576,
      "uri": "scene.bin"
    }
  ],
  "images": [
    {
      "uri": "textures/pallet_baseColor.png"
    },
    {
      "uri": "textures/pallet_metallicRoughness.png"
    },
    {
      "uri": "textures/pallet_normal.png"
    }
  ],
  "materials": [
    {
      "doubleSided": true,
      "name": "pallet",
      "normalTexture": {
        "index": 2
      },
      "occlusionTexture": {
        "index": 1
      },
      "pbrMetallicRoughness": {
        "baseColorTexture": {
          "index": 0
        },
        "metallicRoughnessTexture": {
          "index": 1
        }
      }
    }
  ],
  "meshes": [
    {
      "name": "pallet_pallet_0",
      "primitives": [
        {
          "attributes": {
            "NORMAL": 1,
            "POSITION": 0,
            "TANGENT": 2,
            "TEXCOORD_0": 3,
            "TEXCOORD_1": 4
          },
          "indices": 5,
          "material": 0,
          "mode": 4
        }
      ]
    }
  ],
  "nodes": [
    {
      "children": [
        1
      ],
      "matrix": [
        1.0,
        0.0,
        0.0,
        0.0,
        0.0,
        2.220446049250313e-16,
        -1.0,
        0.0,
        0.0,
        1.0,
        2.220446049250313e-16,
        0.0,
        0.0,
        0.0,
        0.0,
        1.0
      ],
      "name": "Sketchfab_model"
    },
    {
      "children": [
        2
      ],
      "matrix": [
        0.009999999776482582,
        0.0,
        0.0,
        0.0,
        0.0,
        0.0,
        0.009999999776482582,
        0.0,
        0.0,
        -0.009999999776482582,
        0.0,
        0.0,
        0.0,
        0.0,
        0.0,
        1.0
      ],
      "name": "pallet.fbx"
    },
    {
      "children": [
        3
      ],
      "name": "RootNode"
    },
    {
      "children": [
        4
      ],
      "matrix": [
        1.0,
        0.0,
        0.0,
        0.0,
        0.0,
        2.220446049250313e-16,
        -1.0,
        0.0,
        0.0,
        1.0,
        2.220446049250313e-16,
        0.0,
        0.0,
        5.7347846031188965,
        -1.9073486328125e-06,
        1.0
      ],
      "name": "pallet"
    },
    {
      "mesh": 0,
      "name": "pallet_pallet_0"
    }
  ],
  "samplers": [
    {
      "magFilter": 9729,
      "minFilter": 9987,
      "wrapS": 10497,
      "wrapT": 10497
    }
  ],
  "scene": 0,
  "scenes": [
    {
      "name": "Sketchfab_Scene",
      "nodes": [
        0
      ]
    }
  ],
  "textures": [
    {
      "sampler": 0,
      "source": 0
    },
    {
      "sampler": 0,
      "source": 1
    },
    {
      "sampler": 0,
      "source": 2
    }
  ]
}
